<svg width="68" height="20" viewBox="0 0 68 20" xmlns="http://www.w3.org/2000/svg"><g fill="none" fill-rule="evenodd"><path d="M11.026 4.446H9.372a.458.458 0 00-.46.457V15.13c0 .252.206.457.46.457h1.654c.254 0 .46-.205.46-.457V4.903a.458.458 0 00-.46-.457M7.03 13.03H2.572V4.904a.458.458 0 00-.46-.457H.46A.458.458 0 000 4.903V15.13c0 .252.206.457.46.457h6.57c.253 0 .458-.205.458-.457v-1.644a.458.458 0 00-.459-.456M31.608 7.003c.254 0 .46-.204.46-.456V4.903a.458.458 0 00-.46-.457h-6.57a.458.458 0 00-.459.457V15.13c0 .252.206.457.46.457h6.57c.253 0 .459-.205.459-.457v-1.644a.458.458 0 00-.46-.456h-4.456v-1.736h4.456c.254 0 .46-.204.46-.456V9.195a.458.458 0 00-.46-.457h-4.456V7.003h4.456zM22.374 4.446H20.72a.458.458 0 00-.46.457v5.918l-4.328-6.15c-.123-.175-.306-.225-.509-.225-.025-.004-.052 0-.078 0H13.69a.458.458 0 00-.46.457V15.13c0 .252.206.457.46.457h1.654c.253 0 .46-.205.46-.457V8.95l4.512 6.413a.543.543 0 00.053.063c.077.091.19.153.317.162h1.687c.254 0 .46-.205.46-.457V4.903a.458.458 0 00-.46-.457" fill="#000"/><path d="M66.815 19.86h-29.28a1.145 1.145 0 01-1.149-1.142V1.314c0-.63.514-1.142 1.148-1.142h29.28c.635 0 1.15.511 1.15 1.142v17.404c0 .63-.515 1.141-1.15 1.141" fill="#08BF5B"/><path d="M45.678 7.85c0-.664-.471-1.17-1.112-1.17h-1.374v2.34h1.374c.64 0 1.112-.507 1.112-1.17m2.093 0c0 1.729-1.4 3.12-3.205 3.12h-1.374v2.555c0 .169-.138.306-.308.306h-1.477a.307.307 0 01-.308-.306v-8.49c0-.17.138-.306.308-.306h3.159c1.805 0 3.205 1.391 3.205 3.12M53.581 10.58c0-.975-.654-1.586-1.557-1.586-.902 0-1.556.611-1.556 1.586 0 .976.654 1.587 1.556 1.587.903 0 1.557-.611 1.557-1.587m1.963-3.09v6.18c0 .09-.073.161-.162.161h-1.638a.162.162 0 01-.163-.161v-.45c-.431.494-1.072.793-1.949.793-1.714 0-3.127-1.495-3.127-3.433 0-1.937 1.413-3.433 3.127-3.433.877 0 1.518.3 1.95.794v-.45c0-.09.072-.162.162-.162h1.638c.09 0 .162.073.162.162M62.074 7.499l-1.506 3.77-1.557-3.773a.27.27 0 00-.25-.166h-1.67a.161.161 0 00-.15.222l2.598 6.295-.947 2.371a.161.161 0 00.151.22h1.67a.27.27 0 00.252-.169l3.482-8.719a.161.161 0 00-.15-.22h-1.671a.27.27 0 00-.252.169" fill="#FFF"/></g></svg>